<?xml version="1.0" encoding="utf-8"?>
<!-- Generator: Adobe Illustrator 25.2.0, SVG Export Plug-In . SVG Version: 6.00 Build 0)  -->
<svg version="1.1" id="Слой_1" xmlns="http://www.w3.org/2000/svg" xmlns:xlink="http://www.w3.org/1999/xlink" x="0px" y="0px"
	 viewBox="0 0 22 22" style="enable-background:new 0 0 22 22;" xml:space="preserve">
<style type="text/css">
	.st0{fill:#C0C0CA;}
</style>
<g>
	<path class="st0" d="M21.1,6c-0.1-0.3-0.3-0.6-0.5-0.9c-1.3-1.3-6.7-4.3-8.7-4.9c-0.5-0.2-1.1-0.1-1.7,0C8,0.8,2.5,3.9,1.4,5.1
		C1.2,5.4,1,5.6,0.9,5.9c-0.5,1.6-0.6,7.9-0.1,9.9c0.1,0.5,0.4,0.9,0.8,1.3c1.5,1.4,6.6,4.2,8.6,4.8c0.5,0.1,1,0.1,1.5,0
		c1.9-0.6,7.2-3.5,8.7-4.8c0.4-0.3,0.6-0.7,0.7-1.2C21.6,13.9,21.6,7.6,21.1,6z M14,13.8c-0.8,1.2-2.7,2.9-4.2,1.9
		c-1.5-1-2.7-2.4-3.4-4.1C5.9,10.5,5.8,9,6.7,8c0,0,0.1-0.1,0.1-0.1C7,7.6,7.3,7.4,7.7,7.2S8.4,7,8.8,7c0.4,0,0.8,0.1,1.1,0.2
		c0.4,0.1,0.7,0.4,0.9,0.6c0.4,0.4,0.8,1,1.1,1.6c0.7-1.1,1.9-2.1,3.2-1.7C17.3,8.6,14.7,12.9,14,13.8z"/>
	<path class="st0" d="M12.2,10c0.3,0.9,0.2,1.9-0.7,2.4c-1.3,0.9-3-0.9-3.5-2l0,0c-0.1-0.3,0.7-0.8,0.8-0.6c0.3,0.8,1.2,2,2.1,2.1
		s-0.1-2.3-1.2-3.3C8.8,7.7,7,7.4,6.9,9.1c-0.1,1.9,2.7,5.4,4.2,5.9c1.7,0.6,3.3-2.6,3.6-4C15.1,8.9,13.3,7.6,12.2,10z"/>
</g>
</svg>
